# xmcd
#
# Track frame offsets:
#	150
#	22336
#	38522
#	52689
#	78809
#	97457
#	111274
#	122234
#	166706
#	178868
#	198885
#	209397
#	230355
#	248163
#	271317
#	285201
#
# Disc length: 4085
#
# Revision: 1
# Processed by: cddbd v1.5.1PL0 Copyright (c) Steve Scherf et al.
# Submitted via: dBpowerAMP V4.0
# Normalized: r0:DSETVAR2,TDELIM( - )
#
DISCID=d40ff310
DTITLE=Various Artist - Guitar Heroes 3
DYEAR=1900
DGENRE=Blues
TTITLE0=Santana - Soul Sacrifice
TTITLE1=B.B. King - It's My Own Fault Baby
TTITLE2=Jimi Hendrix - Little Wing
TTITLE3=John Mayall - Ridin' On The L and N
TTITLE4=The Booze Brothers featuring Mark Knopfler - Rock Steady Woman
TTITLE5=The Yardbirds (with Jeff Beck) - Jeff's Blues
TTITLE6=Eric Clapton and Jimmy Page - Miles Road
TTITLE7=Santana - Jingo
TTITLE8=Johnny Winter - Livin' In The Blues
TTITLE9=John Mayall - Road Show
TTITLE10=Eric Clapton - West Coast Idea
TTITLE11=Tony Joe White - Roosevelt and Ira Lee
TTITLE12=Mike Bloomfield - Hully Gully
TTITLE13=Jimi Hendrix - Voodoo Chile (Slight Return) (short version)
TTITLE14=Eric Clapton - Draggin' My Tail
TTITLE15=Johnny Winter - Going Down Slow
EXTD=Guitar Heroes
EXTT0=
EXTT1=
EXTT2=
EXTT3=
EXTT4=
EXTT5=
EXTT6=
EXTT7=
EXTT8=
EXTT9=
EXTT10=
EXTT11=
EXTT12=
EXTT13=
EXTT14=
EXTT15=
PLAYORDER=
